<svg width="52" height="45" viewBox="0 0 52 45" fill="none" xmlns="http://www.w3.org/2000/svg">
<path d="M25.9756 0C27.1877 0 28.1706 0.900633 28.1709 2.01172C28.1709 2.7735 27.7083 3.43571 27.0273 3.77734C27.6755 5.71319 28 7.64915 28 9.58496C28 9.6827 27.9895 9.78019 27.9746 9.87793H28.1709C29.181 9.87802 29.9998 10.6969 30 11.707H30.915C38.4462 11.7073 44.8076 16.7096 46.8623 23.5723C47.1992 23.47 47.5565 23.415 47.9268 23.415C49.9473 23.415 51.585 25.0527 51.585 27.0732V29.2686C51.5848 31.289 49.9472 32.9268 47.9268 32.9268C47.592 32.9268 47.268 32.8811 46.96 32.7969C45.0158 39.8329 38.5694 44.9998 30.915 45H21.0371C13.4295 45 7.01348 39.8968 5.02637 32.9268H4.75586C2.1293 32.9266 9.02885e-05 30.7975 0 28.1709V27.0732C0 25.0528 1.6378 23.4152 3.6582 23.415C4.15198 23.415 4.62297 23.5131 5.05273 23.6904C7.06936 16.7667 13.4625 11.707 21.0371 11.707H21.9512C21.9513 10.697 22.7702 9.87805 23.7803 9.87793H24.0254C24.0105 9.78019 24 9.6827 24 9.58496C24 7.65569 24.3221 5.72618 24.9658 3.79688C24.2621 3.46168 23.7803 2.78891 23.7803 2.01172C23.7806 0.90064 24.7634 1.14554e-05 25.9756 0ZM21.5859 13.9023C13.7059 13.9023 7.31754 20.2909 7.31738 28.1709C7.31747 36.051 13.7058 42.4395 21.5859 42.4395H30.001C37.8807 42.439 44.2685 36.0507 44.2686 28.1709C44.2684 20.2912 37.8806 13.9028 30.001 13.9023H21.5859ZM18.8418 20.8535C20.5591 20.8538 21.9511 22.9013 21.9512 25.4268C21.9512 27.9523 20.5591 29.9997 18.8418 30C17.1243 30 15.7314 27.9524 15.7314 25.4268C15.7315 22.9011 17.1243 20.8535 18.8418 20.8535ZM33.1094 20.8535C34.8268 20.8535 36.2197 22.9011 36.2197 25.4268C36.2197 27.9524 34.8268 30 33.1094 30C31.3921 29.9997 30 27.9523 30 25.4268C30 22.9013 31.3921 20.8538 33.1094 20.8535Z" fill="white"/>
</svg>
