<svg width="136" height="136" viewBox="0 0 136 136" fill="none" xmlns="http://www.w3.org/2000/svg">
<circle cx="68" cy="68" r="68" fill="#1658C3"/>
<path d="M67.8936 20C70.5021 20.0001 72.6172 21.9388 72.6172 24.3301C72.6171 25.9088 71.6945 27.2895 70.3174 28.0459C72.1046 32.4207 73 36.7951 73 41.1699C73 41.2054 72.9972 41.2409 72.9961 41.2764C74.9918 41.4673 76.5526 43.1477 76.5527 45.1934H83.3398C98.5129 45.1936 111.139 56.0946 113.815 70.4922C114.242 70.4206 114.681 70.3818 115.128 70.3818C119.475 70.3821 123 73.9065 123 78.2539V82.9775C123 87.3251 119.475 90.8503 115.128 90.8506C114.727 90.8506 114.333 90.8195 113.948 90.7617C111.586 105.539 98.7824 116.832 83.3398 116.832H52.4463C37.0347 116.832 24.2524 105.584 21.8535 90.8506H21C16.0296 90.8505 12.0002 86.8209 12 81.8506V78.2539C12.0002 73.9065 15.5246 70.382 19.8721 70.3818C20.5875 70.3818 21.2806 70.4793 21.9395 70.6582C24.5492 56.1784 37.2148 45.1936 52.4463 45.1934H59.2334C59.2336 43.0756 60.9066 41.3492 63.0029 41.2617C63.0021 41.2312 63 41.2005 63 41.1699C63 36.8258 63.8823 32.4818 65.6445 28.1377C64.1709 27.4049 63.17 25.9748 63.1699 24.3301C63.1699 21.9388 65.2849 20 67.8936 20ZM58.4463 49.915C41.5142 49.9154 27.7839 63.6218 27.7451 80.5449V80.6885C27.7838 97.6117 41.5141 111.319 58.4463 111.319H76.5518C93.5081 111.319 107.255 97.5734 107.255 80.6172C107.255 63.6608 93.5082 49.915 76.5518 49.915H58.4463ZM52.542 64.8711C56.2375 64.8711 59.2333 69.2764 59.2334 74.7109C59.2334 80.1457 56.2376 84.5518 52.542 84.5518C48.8465 84.5517 45.8506 80.1456 45.8506 74.7109C45.8507 69.2764 48.8465 64.8712 52.542 64.8711ZM83.2441 64.8711C86.9397 64.8711 89.9354 69.2764 89.9355 74.7109C89.9355 80.1457 86.9397 84.5518 83.2441 84.5518C79.5486 84.5516 76.5527 80.1456 76.5527 74.7109C76.5529 69.2764 79.5487 64.8712 83.2441 64.8711Z" fill="white"/>
</svg>
