<svg width="32" height="32" viewBox="0 0 32 32" fill="none" xmlns="http://www.w3.org/2000/svg">
<path d="M2 0C2.46653 0 2.84473 0.378197 2.84473 0.844727V27.1553C2.84473 28.2598 3.74016 29.1553 4.84473 29.1553H31.1553C31.6218 29.1553 32 29.5335 32 30C32 31.1046 31.1046 32 30 32H2C0.895431 32 0 31.1046 0 30V2C0 0.895431 0.895431 0 2 0ZM16.3555 16.0234C17.46 16.0234 18.3555 16.9189 18.3555 18.0234V25.0234C18.3552 26.1278 17.4599 27.0234 16.3555 27.0234C15.2511 27.0234 14.3557 26.1278 14.3555 25.0234V18.0234C14.3555 16.9189 15.2509 16.0235 16.3555 16.0234ZM8.66699 6.40039C9.77141 6.40057 10.667 7.29593 10.667 8.40039V25.0225C10.6669 26.1268 9.77133 27.0223 8.66699 27.0225H8.40039C7.2959 27.0225 6.40052 26.1269 6.40039 25.0225V8.40039C6.40039 7.29582 7.29582 6.40039 8.40039 6.40039H8.66699ZM24.1777 13.0215C25.2822 13.0215 26.1776 13.9171 26.1777 15.0215V25.0215C26.1777 26.1261 25.2823 27.0215 24.1777 27.0215C23.0732 27.0215 22.1777 26.126 22.1777 25.0215V15.0215C22.1779 13.9171 23.0733 13.0215 24.1777 13.0215Z" fill="#1658C3"/>
</svg>
