<svg width="32" height="32" viewBox="0 0 32 32" fill="none" xmlns="http://www.w3.org/2000/svg">
<path d="M16 0C24.8366 0 32 7.16344 32 16C32 24.8366 24.8366 32 16 32C7.16344 32 0 24.8366 0 16C1.03081e-06 7.16344 7.16344 1.03088e-06 16 0ZM16 3C8.8203 3 3 8.8203 3 16C3 23.1797 8.8203 29 16 29C23.1797 29 29 23.1797 29 16C29 8.8203 23.1797 3 16 3ZM16 6.62012C16.5522 6.62012 16.9998 7.06799 17 7.62012V9.66797H19.8096C20.3617 9.66797 20.8094 10.1158 20.8096 10.668C20.8094 11.2201 20.3618 11.668 19.8096 11.668H17V15.001H17.9053C18.8775 15.0011 19.8105 15.3878 20.498 16.0752C21.1854 16.7627 21.5712 17.6958 21.5713 18.668C21.5712 19.6402 21.1855 20.5732 20.498 21.2607C19.8105 21.9483 18.8776 22.3339 17.9053 22.334H17V24.3818C17 24.9341 16.5523 25.3818 16 25.3818C15.4478 25.3817 15 24.9341 15 24.3818V22.334H11.4287C10.8764 22.334 10.4287 21.8863 10.4287 21.334C10.4291 20.7821 10.8767 20.334 11.4287 20.334H15V17.001H14.0957C13.1233 17.001 12.1906 16.6144 11.5029 15.9268C10.8154 15.2391 10.4287 14.3063 10.4287 13.334C10.4289 12.3618 10.8155 11.4287 11.5029 10.7412C12.1905 10.0539 13.1235 9.66798 14.0957 9.66797H15V7.62012C15.0002 7.06805 15.4479 6.62021 16 6.62012ZM17 20.334H17.9053C18.347 20.3339 18.7706 20.1589 19.083 19.8467C19.3954 19.5342 19.5712 19.1098 19.5713 18.668C19.5712 18.2261 19.3955 17.8017 19.083 17.4893C18.7706 17.177 18.347 17.0011 17.9053 17.001H17V20.334ZM14.0957 11.668C13.6538 11.668 13.2295 11.8438 12.917 12.1562C12.6047 12.4686 12.4289 12.8923 12.4287 13.334C12.4287 13.7759 12.6046 14.2002 12.917 14.5127C13.2295 14.8252 13.6537 15.001 14.0957 15.001H15V11.668H14.0957Z" fill="#1658C3"/>
</svg>
