<svg width="26" height="32" viewBox="0 0 26 32" fill="none" xmlns="http://www.w3.org/2000/svg">
<path d="M20.2207 0C22.9819 0.000221395 25.2207 2.23871 25.2207 5V27C25.2205 29.7611 22.9818 31.9998 20.2207 32H5C2.23872 32 0.000224639 29.7612 0 27V5C9.65947e-07 2.23858 2.23858 1.83679e-08 5 0H20.2207ZM5.42383 24.4072C3.92613 24.4072 2.71191 25.6214 2.71191 27.1191C2.71194 28.6168 3.92614 29.8311 5.42383 29.8311C6.92146 29.831 8.13571 28.6168 8.13574 27.1191C8.13574 25.6215 6.92148 24.4073 5.42383 24.4072ZM12.4746 24.4072C10.9769 24.4072 9.7627 25.6214 9.7627 27.1191C9.76272 28.6168 10.9769 29.8311 12.4746 29.8311C13.9723 29.8311 15.1865 28.6168 15.1865 27.1191C15.1865 25.6214 13.9723 24.4072 12.4746 24.4072ZM19.5254 18.1689C18.0277 18.1689 16.8135 19.3832 16.8135 20.8809V27.1182C16.8135 28.6159 18.0277 29.8301 19.5254 29.8301C21.0231 29.8301 22.2373 28.6159 22.2373 27.1182V20.8809C22.2372 19.3832 21.0231 18.1689 19.5254 18.1689ZM5.42383 18.1689C3.92615 18.1689 2.71195 19.3832 2.71191 20.8809C2.71191 22.3786 3.92613 23.5928 5.42383 23.5928C6.92148 23.5927 8.13574 22.3785 8.13574 20.8809C8.1357 19.3832 6.92145 18.169 5.42383 18.1689ZM12.4746 18.1689C10.9769 18.1689 9.76274 19.3832 9.7627 20.8809C9.7627 22.3786 10.9769 23.5928 12.4746 23.5928C13.9723 23.5928 15.1865 22.3786 15.1865 20.8809C15.1865 19.3832 13.9723 18.1689 12.4746 18.1689ZM5.42383 11.9326C3.92613 11.9326 2.71192 13.1468 2.71191 14.6445C2.71191 16.1422 3.92613 17.3564 5.42383 17.3564C6.92148 17.3564 8.13574 16.1422 8.13574 14.6445C8.13574 13.1469 6.92148 11.9327 5.42383 11.9326ZM12.4746 11.9326C10.9769 11.9326 9.7627 13.1468 9.7627 14.6445C9.7627 16.1422 10.9769 17.3564 12.4746 17.3564C13.9723 17.3564 15.1865 16.1422 15.1865 14.6445C15.1865 13.1468 13.9723 11.9326 12.4746 11.9326ZM19.5254 11.9326C18.0277 11.9326 16.8135 13.1468 16.8135 14.6445C16.8135 16.1422 18.0277 17.3564 19.5254 17.3564C21.0231 17.3564 22.2373 16.1422 22.2373 14.6445C22.2373 13.1468 21.0231 11.9326 19.5254 11.9326ZM4.71191 2.71289C3.60734 2.71289 2.71191 3.60832 2.71191 4.71289V8.03418C2.71191 9.13875 3.60734 10.0342 4.71191 10.0342H20.2373C21.3418 10.0341 22.2373 9.13873 22.2373 8.03418V4.71289C22.2373 3.60834 21.3418 2.71292 20.2373 2.71289H4.71191Z" fill="#1658C3"/>
</svg>
