<svg width="33" height="33" viewBox="0 0 33 33" fill="none" xmlns="http://www.w3.org/2000/svg">
<path d="M16.5 0C25.6127 0 33 7.3873 33 16.5C33 25.6127 25.6127 33 16.5 33C7.3873 33 0 25.6127 0 16.5C3.54342e-07 7.3873 7.3873 3.54365e-07 16.5 0ZM21.5166 22.0469C20.3057 21.4675 18.9319 21.975 17.6475 22.3652C17.2301 22.4919 16.7922 22.5595 16.3418 22.5596C15.9087 22.5595 15.4868 22.4974 15.084 22.3799C13.7931 22.0034 12.4114 21.5066 11.2051 22.1006C10.1038 22.643 9.12864 23.352 8.32617 24.1875C6.91387 25.658 7.42692 27.9935 9.18652 29.0234C11.3335 30.2801 13.8326 31.0009 16.5 31.001C19.1124 31.0009 21.5632 30.309 23.6797 29.0996C25.4441 28.0913 25.9872 25.7707 24.6006 24.2852C23.7544 23.3787 22.7068 22.6165 21.5166 22.0469ZM16.335 9.56934C13.3279 9.5694 10.8897 12.0075 10.8896 15.0146C10.8896 18.0218 13.3278 20.4599 16.335 20.46C19.3422 20.46 21.7803 18.0218 21.7803 15.0146C21.7802 12.0075 19.3421 9.56934 16.335 9.56934Z" fill="#1658C3"/>
</svg>
